<?xml version="1.0" encoding="UTF-8"?>
<svg version="1.1" xmlns="http://www.w3.org/2000/svg" width="200" height="200">
<path d="M0 0 C66 0 132 0 200 0 C200 66 200 132 200 200 C134 200 68 200 0 200 C0 134 0 68 0 0 Z " fill="#15002C" transform="translate(0,0)"/>
<path d="M0 0 C4.10927221 3.2810468 7.17161918 7.50684677 7.83398438 12.765625 C8.60226241 39.10148134 8.60226241 39.10148134 1.51171875 47.20703125 C-6.13272297 54.06113853 -14.05786305 55.69610355 -24.1328125 55.515625 C-28.84549217 55.08221209 -30.87445207 54.2709299 -34.48828125 51.20703125 C-36.13241229 48.92859039 -37.25767669 46.76290227 -38.48828125 44.20703125 C-38.81828125 43.54703125 -39.14828125 42.88703125 -39.48828125 42.20703125 C-39.89250463 36.95212726 -39.47356804 33.59167123 -36.48828125 29.20703125 C-28.03894253 19.89458804 -13.77860801 19.98422578 -2.0234375 19.3203125 C-1.18683594 19.28292969 -0.35023437 19.24554688 0.51171875 19.20703125 C0.08648059 17.59957069 -0.35398251 15.99613289 -0.80078125 14.39453125 C-1.04441406 13.50121094 -1.28804687 12.60789062 -1.5390625 11.6875 C-2.52768008 9.10407546 -3.32875338 7.89732837 -5.48828125 6.20703125 C-11.15474182 4.31821106 -17.27397751 4.48235003 -22.92578125 6.33203125 C-25.97915301 8.56620571 -27.60609929 10.94940862 -29.48828125 14.20703125 C-31.79828125 13.87703125 -34.10828125 13.54703125 -36.48828125 13.20703125 C-36.24222691 8.16291727 -34.63130714 5.32915027 -31.26171875 1.75390625 C-23.46440751 -5.04727271 -8.65348868 -5.31222841 0 0 Z " fill="#8D35DD" transform="translate(85.48828125,73.79296875)"/>
<path d="M0 0 C3.31799976 2.5088845 5.06866533 4.89997498 7.06640625 8.5625 C7.06640625 9.8825 7.06640625 11.2025 7.06640625 12.5625 C4.75640625 12.8925 2.44640625 13.2225 0.06640625 13.5625 C-0.49046875 12.634375 -1.04734375 11.70625 -1.62109375 10.75 C-4.05190493 7.39942243 -5.10327148 6.02943193 -8.93359375 4.5625 C-14.699743 4.01458536 -19.63958865 4.02978944 -24.93359375 6.5625 C-28.40488204 9.90522205 -28.94509834 14.00021348 -29.93359375 18.5625 C-29.16917969 18.59988281 -28.40476562 18.63726562 -27.6171875 18.67578125 C-0.71288607 20.32694776 -0.71288607 20.32694776 7.44140625 29.125 C10.22437389 33.29945146 10.47121465 36.62383751 10.06640625 41.5625 C8.4344516 47.04046243 5.63339484 50.94330852 0.59765625 53.71484375 C-7.44868633 56.40937514 -16.28658664 55.29186969 -23.87890625 51.76953125 C-26.75471945 50.08012768 -28.81694786 48.12813138 -30.93359375 45.5625 C-31.83078125 44.510625 -31.83078125 44.510625 -32.74609375 43.4375 C-33.93359375 41.5625 -33.93359375 41.5625 -33.93359375 38.5625 C-31.30859375 37.625 -31.30859375 37.625 -27.93359375 37.5625 C-26.48046875 38.94921875 -26.48046875 38.94921875 -25.05859375 40.8125 C-21.42979396 45.54694972 -17.6625376 47.00175656 -11.85546875 47.875 C-6.73500097 48.18770032 -3.81470105 46.78097923 0.06640625 43.5625 C1.72900895 40.2372946 1.41599752 36.9220216 0.50390625 33.375 C-4.49966519 27.06614905 -15.53071384 27.05624116 -22.87109375 25.875 C-24.23646325 25.64859986 -25.60169928 25.42139328 -26.96679688 25.19335938 C-30.28783864 24.64180827 -33.61000643 24.09845986 -36.93359375 23.5625 C-36.99121478 21.3258249 -37.03229713 19.08871968 -37.06640625 16.8515625 C-37.09105957 15.60584473 -37.11571289 14.36012695 -37.14111328 13.07666016 C-36.85036034 8.15301572 -35.32362821 5.07645217 -31.93359375 1.5625 C-22.91070202 -5.61898525 -9.89611927 -5.73877097 0 0 Z " fill="#8735D4" transform="translate(143.93359375,74.4375)"/>
<path d="M0 0 C6.15073326 -0.23886343 11.89315492 0.6562225 17.9375 1.75 C18.88818359 1.90726562 19.83886719 2.06453125 20.81835938 2.2265625 C26.51529476 3.24737794 32.30298774 4.41921889 37 8 C39.09825407 11.43186462 39.49217549 13.98056683 39 18 C36.84946639 21.37940996 34.87676675 23.81543238 31 25 C25.16342463 25.48638128 20.11535024 25.04384477 15 22 C12.73946837 19.83949189 10.88266429 17.48823465 9 15 C8.34 14.34 7.68 13.68 7 13 C7.33 12.01 7.66 11.02 8 10 C7.01 10 6.02 10 5 10 C4.87625 8.3603125 4.87625 8.3603125 4.75 6.6875 C4.36310791 2.96723336 4.36310791 2.96723336 1.9375 1.0625 C1.298125 0.711875 0.65875 0.36125 0 0 Z " fill="#190134" transform="translate(107,98)"/>
<path d="M0 0 C-0.30639899 8.47193198 -1.06183141 14.26378877 -7.4375 20.3125 C-12.95293346 23.94461472 -17.50006724 24.5554488 -24 24 C-27.40622945 23.18546687 -28.58126818 22.50536599 -30.8125 19.8125 C-32.335622 16.20510578 -32.554632 13.88242397 -32 10 C-26.92774125 3.47852446 -20.64740464 2.59464593 -12.9375 1.375 C-12.13505859 1.2409375 -11.33261719 1.106875 -10.50585938 0.96875 C-6.90783938 0.38351189 -3.66837707 0 0 0 Z " fill="#0D011E" transform="translate(86,99)"/>
<path d="M0 0 C4.55555556 0.55555556 4.55555556 0.55555556 6 2 C6.04384447 3.66608987 6.0396713 5.33380554 6 7 C6 9.87527252 6.02455821 12.74977022 6.05130005 15.62489319 C6.07785626 18.7732533 6.0942569 21.92163702 6.10986328 25.07006836 C6.11996546 26.73350533 6.13364519 28.39692437 6.15087891 30.06030273 C6.17506431 32.45821479 6.18646392 34.85589477 6.1953125 37.25390625 C6.20563507 37.99975479 6.21595764 38.74560333 6.22659302 39.51405334 C6.22699319 41.3442614 6.12222338 43.17387757 6 45 C5.34 45.66 4.68 46.32 4 47 C-0.55555556 46.44444444 -0.55555556 46.44444444 -2 45 C-2.19701049 42.58909367 -2.33265043 40.20469567 -2.421875 37.7890625 C-2.46371918 36.70315323 -2.46371918 36.70315323 -2.50640869 35.5953064 C-2.56289577 34.06038275 -2.61650229 32.52535086 -2.66748047 30.99023438 C-2.74943795 28.64110995 -2.85298302 26.29354792 -2.95703125 23.9453125 C-3.00915513 22.45577554 -3.05997902 20.96619241 -3.109375 19.4765625 C-3.14359558 18.77334869 -3.17781616 18.07013489 -3.21307373 17.34561157 C-3.34000839 12.44390596 -3.34000839 12.44390596 -1.49316406 10.03271484 C-1.00041992 9.69191895 -0.50767578 9.35112305 0 9 C-0.66 8.34 -1.32 7.68 -2 7 C-2.25 4.5 -2.25 4.5 -2 2 C-1.34 1.34 -0.68 0.68 0 0 Z " fill="#6C28AD" transform="translate(98,71)"/>
<path d="M0 0 C5.61 0 11.22 0 17 0 C17 1.32 17 2.64 17 4 C15.81921875 4.06058594 14.6384375 4.12117188 13.421875 4.18359375 C11.8645723 4.26802582 10.30728121 4.35267249 8.75 4.4375 C7.97269531 4.47681641 7.19539063 4.51613281 6.39453125 4.55664062 C5.64042969 4.59853516 4.88632813 4.64042969 4.109375 4.68359375 C3.07248535 4.73858032 3.07248535 4.73858032 2.01464844 4.79467773 C-0.35620639 4.9878141 -0.35620639 4.9878141 -4 6 C-4.33 11.61 -4.66 17.22 -5 23 C-6.65 23.33 -8.3 23.66 -10 24 C-11.96611502 19.95520612 -12.11331236 17.13114252 -11.625 12.6875 C-11.51414062 11.61886719 -11.40328125 10.55023438 -11.2890625 9.44921875 C-11.14597656 8.23685547 -11.14597656 8.23685547 -11 7 C-10.01 6.67 -9.02 6.34 -8 6 C-7.34 5.01 -6.68 4.02 -6 3 C-4.33985384 2.63557767 -2.67293936 2.30027117 -1 2 C-0.67 1.34 -0.34 0.68 0 0 Z " fill="#9333E9" transform="translate(120,73)"/>
<path d="M0 0 C1.67542976 0.28604898 3.34385343 0.61781233 5 1 C5.04946113 5.21751282 5.08574827 9.43487168 5.10986328 13.65258789 C5.119917 15.08718812 5.13356194 16.52176789 5.15087891 17.95629883 C5.17515549 20.01909438 5.18648919 22.08161885 5.1953125 24.14453125 C5.20578613 25.38565674 5.21625977 26.62678223 5.22705078 27.90551758 C5 31 5 31 3 34 C2.01 34 1.02 34 0 34 C-0.16725324 29.3188055 -0.32784864 24.63744899 -0.48217773 19.95581055 C-0.53566794 18.36199744 -0.59100255 16.76824515 -0.64819336 15.17456055 C-0.72990942 12.88864258 -0.80506897 10.60259054 -0.87890625 8.31640625 C-0.90594131 7.59973282 -0.93297638 6.88305939 -0.96083069 6.14466858 C-1.01297644 4.43052233 -1.01185628 2.71489824 -1 1 C-0.67 0.67 -0.34 0.34 0 0 Z " fill="#9036E1" transform="translate(98,82)"/>
<path d="M0 0 C0.33 0 0.66 0 1 0 C0.67 2.64 0.34 5.28 0 8 C-0.99 8.33 -1.98 8.66 -3 9 C-3 9.33 -3 9.66 -3 10 C-2.67 9.67 -2.34 9.34 -2 9 C-0.33382885 8.95936168 1.33388095 8.957279 3 9 C1.74838228 12.75485316 0.54425403 13.16894128 -2.8125 15.125 C-3.68519531 15.64320312 -4.55789062 16.16140625 -5.45703125 16.6953125 C-11.85035813 19.97545256 -18.96482598 19.59958869 -26 19 C-29.4900202 17.81988099 -32.28932297 16.42135405 -34 13 C-29.125 14.875 -29.125 14.875 -28 16 C-26.65732587 16.08631874 -25.31025678 16.10706473 -23.96484375 16.09765625 C-23.15595703 16.09443359 -22.34707031 16.09121094 -21.51367188 16.08789062 C-20.2384668 16.07532227 -20.2384668 16.07532227 -18.9375 16.0625 C-18.08349609 16.05798828 -17.22949219 16.05347656 -16.34960938 16.04882812 C-14.23304337 16.03700373 -12.11651315 16.01906769 -10 16 C-9.67 15.34 -9.34 14.68 -9 14 C-10.22976562 14.14308594 -10.22976562 14.14308594 -11.484375 14.2890625 C-13.10085937 14.45535156 -13.10085937 14.45535156 -14.75 14.625 C-15.81734375 14.74101563 -16.8846875 14.85703125 -17.984375 14.9765625 C-21.03792399 15.00029475 -22.46162421 14.61420985 -25 13 C-22.10237478 12.03412493 -20.76194987 11.99435019 -17.8125 12.1875 C-12.75663891 12.23690581 -9.12587904 10.89371607 -5 8 C-2.42333416 5.29119745 -1.17895072 3.53685217 0 0 Z " fill="#8638D0" transform="translate(84,110)"/>
<path d="M0 0 C5.75 1.75 5.75 1.75 8 4 C7.67 5.093125 7.34 6.18625 7 7.3125 C5.86913351 10.84578884 5.86913351 10.84578884 6 14 C5.01 14.66 4.02 15.32 3 16 C3 16.99 3 17.98 3 19 C3.66 19 4.32 19 5 19 C5.93423645 22.01031744 6.04449911 22.86650268 5 26 C3.68 26 2.36 26 1 26 C1 25.34 1 24.68 1 24 C-0.32 24 -1.64 24 -3 24 C-3 23.34 -3 22.68 -3 22 C-3.66 21.67 -4.32 21.34 -5 21 C-4.01 20.67 -3.02 20.34 -2 20 C-0.88176185 17.76352369 -0.80603939 16.35108471 -0.68359375 13.8671875 C-0.64169922 13.06152344 -0.59980469 12.25585938 -0.55664062 11.42578125 C-0.51732422 10.58402344 -0.47800781 9.74226563 -0.4375 8.875 C-0.37272461 7.60076172 -0.37272461 7.60076172 -0.30664062 6.30078125 C-0.20045764 4.20071777 -0.09971503 2.10038052 0 0 Z " fill="#090118" transform="translate(105,98)"/>
<path d="M0 0 C-0.226875 0.9075 -0.45375 1.815 -0.6875 2.75 C-1.06472364 6.67312581 -0.31511573 7.03665186 2 10 C2.1875 13.25 2.1875 13.25 2 16 C5.63 16.33 9.26 16.66 13 17 C8.93166802 19.71222132 5.76455731 19.39425034 1 19 C-2.40622945 18.18546687 -3.58126818 17.50536599 -5.8125 14.8125 C-7.335622 11.20510578 -7.554632 8.88242397 -7 5 C-2.95744681 0 -2.95744681 0 0 0 Z " fill="#14012B" transform="translate(61,104)"/>
<path d="M0 0 C0.33 0 0.66 0 1 0 C1.33 3.63 1.66 7.26 2 11 C4.475 11.99 4.475 11.99 7 13 C7.33 13.66 7.66 14.32 8 15 C9.92079547 15.47051767 9.92079547 15.47051767 12.1875 15.625 C12.99445313 15.69847656 13.80140625 15.77195312 14.6328125 15.84765625 C17.42793619 16.02754045 20.20015534 16.07179089 23 16 C22.67 16.99 22.34 17.98 22 19 C4.11451514 20.0318549 4.11451514 20.0318549 -1.0625 16.4375 C-3.44788563 14.1711132 -4.46509286 12.3674618 -5 9.125 C-5 8.09375 -5 7.0625 -5 6 C-4.34 6.66 -3.68 7.32 -3 8 C-2.01 5.36 -1.02 2.72 0 0 Z " fill="#9035E6" transform="translate(52,108)"/>
<path d="M0 0 C0 0.99 0 1.98 0 3 C0.33 3.66 0.66 4.32 1 5 C1.61875 4.54625 2.2375 4.0925 2.875 3.625 C8.76621205 0.56156974 15.39312407 -0.34773031 22 0 C18.46291091 1.92932132 15.1451973 2.68448271 11.21875 3.4375 C7.11669644 4.47745724 5.38828476 5.41757286 3 9 C2.69108907 13.2475253 2.66953299 16.3586453 5 20 C3.68 20.33 2.36 20.66 1 21 C0.67 17.7 0.34 14.4 0 11 C-0.66 12.98 -1.32 14.96 -2 17 C-3.32 16.67 -4.64 16.34 -6 16 C-6.31565274 10.73912107 -5.7659748 7.50751449 -3 3 C-1.3125 1.125 -1.3125 1.125 0 0 Z " fill="#8534D0" transform="translate(52,100)"/>
<path d="M0 0 C0.88945313 -0.020625 1.77890625 -0.04125 2.6953125 -0.0625 C7.55973181 -0.09154131 11.12582816 -0.07533083 15 3.25 C15 3.91 15 4.57 15 5.25 C9.25 3.375 9.25 3.375 7 2.25 C-6.06310889 1.22460467 -6.06310889 1.22460467 -17.515625 6.57421875 C-20.45046426 9.78736173 -21.90866012 13.0830659 -23 17.25 C-20.69 17.58 -18.38 17.91 -16 18.25 C-15.34 16.6 -14.68 14.95 -14 13.25 C-13 16.25 -13 16.25 -13.9375 18.4375 C-14.288125 19.035625 -14.63875 19.63375 -15 20.25 C-17.31 20.25 -19.62 20.25 -22 20.25 C-22.33 20.91 -22.66 21.57 -23 22.25 C-23.19627391 20.66773035 -23.38165538 19.08410729 -23.5625 17.5 C-23.66691406 16.61828125 -23.77132812 15.7365625 -23.87890625 14.828125 C-24.08024591 10.5415386 -23.53609609 8.84252726 -20.625 5.625 C-14.18772372 -0.19920235 -8.27744406 0.04798518 0 0 Z " fill="#290450" transform="translate(72,69.75)"/>
<path d="M0 0 C2 0 2 0 4 1 C5.25 4.0625 5.25 4.0625 6 7 C6.66 7 7.32 7 8 7 C8.05423638 8.91635217 8.09289963 10.83314925 8.125 12.75 C8.14820312 13.81734375 8.17140625 14.8846875 8.1953125 15.984375 C8.00487687 18.92470106 7.52670104 20.52361878 6 23 C5.01 23 4.02 23 3 23 C3 22.34 3 21.68 3 21 C2.34 20.67 1.68 20.34 1 20 C1.66 19.01 2.32 18.02 3 17 C3.36102347 12.21643899 2.94458865 8.40091116 1 4 C0.01 3.34 -0.98 2.68 -2 2 C-1.34 1.34 -0.68 0.68 0 0 Z " fill="#9233E9" transform="translate(83,76)"/>
<path d="M0 0 C4.55555556 0.55555556 4.55555556 0.55555556 6 2 C6.04384447 3.66608987 6.0396713 5.33380554 6 7 C6 7.99 6 8.98 6 10 C5.67 10.99 5.34 11.98 5 13 C3.35 12.67 1.7 12.34 0 12 C-0.99 15.465 -0.99 15.465 -2 19 C-2.33 19 -2.66 19 -3 19 C-3.36923077 12.47692308 -3.36923077 12.47692308 -1.5 10.0625 C-1.005 9.711875 -0.51 9.36125 0 9 C-0.66 8.34 -1.32 7.68 -2 7 C-2.25 4.5 -2.25 4.5 -2 2 C-1.34 1.34 -0.68 0.68 0 0 Z " fill="#1F033B" transform="translate(98,71)"/>
<path d="M0 0 C5.75 0.875 5.75 0.875 8 2 C9.49315415 5.73288538 9.60165745 10.05406475 9 14 C7 17 7 17 5 19 C4.22705337 16.03817795 3.62343257 13.07113834 3.0625 10.0625 C2.36572094 6.51573743 1.53700129 3.29357418 0 0 Z " fill="#9433E7" transform="translate(143,102)"/>
<path d="M0 0 C0.99 0.33 1.98 0.66 3 1 C2.67 1.680625 2.34 2.36125 2 3.0625 C-0.04436474 9.06782142 0.88716116 13.53153836 3.44140625 19.10546875 C6.32581248 22.61157658 9.78947495 24.69111507 14.25561523 25.31518555 C16.66239904 25.3919423 19.03180301 25.35080277 21.4375 25.25 C22.67790039 25.22292969 22.67790039 25.22292969 23.94335938 25.1953125 C25.96274933 25.1486214 27.98153445 25.07689393 30 25 C26.6673537 27.2217642 24.94624392 27.56152845 21 28 C20.31550781 28.08894531 19.63101563 28.17789063 18.92578125 28.26953125 C13.04832299 28.71059705 9.7000242 27.07743653 4.9453125 23.703125 C1.71602248 20.87587511 -0.36505022 18.29752595 -1 14 C-1.09247823 11.77236271 -1.12999339 9.54205045 -1.125 7.3125 C-1.12757812 6.15363281 -1.13015625 4.99476562 -1.1328125 3.80078125 C-1 1 -1 1 0 0 Z " fill="#24024A" transform="translate(46,103)"/>
<path d="M0 0 C-0.99 0.33 -1.98 0.66 -3 1 C-3.66 0.67 -4.32 0.34 -5 0 C-6.3734635 -0.15004973 -7.7528526 -0.24838006 -9.1328125 -0.31640625 C-9.93847656 -0.35830078 -10.74414062 -0.40019531 -11.57421875 -0.44335938 C-12.41597656 -0.48267578 -13.25773437 -0.52199219 -14.125 -0.5625 C-14.97449219 -0.60568359 -15.82398437 -0.64886719 -16.69921875 -0.69335938 C-18.79928223 -0.79954236 -20.89961948 -0.90028497 -23 -1 C-23.33 -0.01 -23.66 0.98 -24 2 C-24.78375 2.103125 -25.5675 2.20625 -26.375 2.3125 C-29.33045181 2.77595022 -29.33045181 2.77595022 -31 6 C-31.66 6 -32.32 6 -33 6 C-31.49235345 1.77858966 -28.78707131 0.19650136 -25 -2 C-17.10517253 -4.66646491 -7.20414656 -4.11665517 0 0 Z " fill="#8738D1" transform="translate(143,74)"/>
<path d="M0 0 C0.99 0.33 1.98 0.66 3 1 C2.4225 1.185625 1.845 1.37125 1.25 1.5625 C-2.10427843 3.70551122 -3.17907996 6.48822563 -5 10 C-5.66 10 -6.32 10 -7 10 C-6.67 10.66 -6.34 11.32 -6 12 C-5.01 12.33 -4.02 12.66 -3 13 C-3 12.01 -3 11.02 -3 10 C-1.25 7.75 -1.25 7.75 1 6 C3.25 6.25 3.25 6.25 5 7 C4.21625 7.5775 3.4325 8.155 2.625 8.75 C0.19952756 10.82897637 -0.85694417 12.09040333 -2 15 C-4.31 14.67 -6.62 14.34 -9 14 C-8.71334273 8.123526 -6.08745753 4.93566865 -2 1 C-1.34 0.67 -0.68 0.34 0 0 Z " fill="#8037C9" transform="translate(58,73)"/>
<path d="M0 0 C0 0.99 0 1.98 0 3 C-0.99 3 -1.98 3 -3 3 C-3 3.66 -3 4.32 -3 5 C-6.66539668 7.37706418 -9.49056835 7.05094317 -13.75 6.625 C-14.92046875 6.51414062 -16.0909375 6.40328125 -17.296875 6.2890625 C-18.63492188 6.14597656 -18.63492188 6.14597656 -20 6 C-20 5.01 -20 4.02 -20 3 C-19.31035156 3.03480469 -18.62070313 3.06960937 -17.91015625 3.10546875 C-11.31480814 3.2954582 -6.09665427 2.52898251 0 0 Z " fill="#9433EA" transform="translate(146,121)"/>
<path d="M0 0 C0.58523437 0.53238281 1.17046875 1.06476563 1.7734375 1.61328125 C2.36382812 2.13277344 2.95421875 2.65226562 3.5625 3.1875 C7.25716323 7.23706931 7.35604515 10.52798239 7.1484375 15.92578125 C7.8084375 15.92578125 8.4684375 15.92578125 9.1484375 15.92578125 C8.53566138 18.88753248 7.89471228 20.30636908 6.1484375 22.92578125 C5.4884375 22.92578125 4.8284375 22.92578125 4.1484375 22.92578125 C4.3134375 22.41015625 4.4784375 21.89453125 4.6484375 21.36328125 C5.86484268 15.43330601 5.44887671 11.04715244 2.1484375 5.92578125 C-0.39887223 3.63320249 -3.00074412 1.82632684 -5.8515625 -0.07421875 C-3.3563244 -1.01405513 -2.36495519 -1.37207316 0 0 Z " fill="#240248" transform="translate(147.8515625,97.07421875)"/>
<path d="M0 0 C0 2 0 4 0 6 C-3.9813783 7.3271261 -7.85045227 7.06915913 -12 7 C-12 6.67 -12 6.34 -12 6 C-10.35 5.67 -8.7 5.34 -7 5 C-6.67 4.01 -6.34 3.02 -6 2 C-6.639375 2.165 -7.27875 2.33 -7.9375 2.5 C-11.97586652 3.15932515 -15.91807258 3.08003779 -20 3 C-20 2.67 -20 2.34 -20 2 C-17.79248152 1.66131223 -15.58394089 1.32928311 -13.375 1 C-12.14523438 0.814375 -10.91546875 0.62875 -9.6484375 0.4375 C-6.3833973 0.04597484 -3.28287549 -0.08080924 0 0 Z " fill="#8537CE" transform="translate(86,93)"/>
<path d="M0 0 C3.48927692 0.31720699 5.55850854 0.66307231 8.375 2.8125 C10 5 10 5 10 9 C8.35 9.33 6.7 9.66 5 10 C2.70620251 6.55930376 2 5.27709699 2 1 C1.34 0.67 0.68 0.34 0 0 Z " fill="#9036E2" transform="translate(139,78)"/>
<path d="M0 0 C0.33 0 0.66 0 1 0 C0.98839844 0.67546875 0.97679688 1.3509375 0.96484375 2.046875 C0.95582031 2.93890625 0.94679688 3.8309375 0.9375 4.75 C0.92589844 5.63171875 0.91429688 6.5134375 0.90234375 7.421875 C0.92172179 10.26953476 0.92172179 10.26953476 2 14 C8.6 15.32 15.2 16.64 22 18 C18.35637126 18.91090719 16.96378943 19.03442389 13.453125 18.44140625 C12.60878906 18.30283203 11.76445313 18.16425781 10.89453125 18.02148438 C10.02183594 17.87001953 9.14914063 17.71855469 8.25 17.5625 C7.36183594 17.41490234 6.47367187 17.26730469 5.55859375 17.11523438 C3.37108664 16.75064986 1.18510358 16.37867934 -1 16 C-1.02692484 13.70839681 -1.04636124 11.41670454 -1.0625 9.125 C-1.07410156 7.84882812 -1.08570312 6.57265625 -1.09765625 5.2578125 C-1 2 -1 2 0 0 Z " fill="#823BCA" transform="translate(108,82)"/>
<path d="M0 0 C1.60031344 3.20062687 0.03173691 5.72271806 -1 9 C4.23161557 10.1239022 9.51464342 10.73492872 14.8203125 11.40234375 C18 12 18 12 21 14 C17.93709203 13.69141842 14.87476048 13.37743707 11.8125 13.0625 C10.94818359 12.97548828 10.08386719 12.88847656 9.19335938 12.79882812 C5.0796975 12.3732769 1.03788809 11.92796186 -3 11 C-2.25 3.375 -2.25 3.375 0 0 Z " fill="#30055C" transform="translate(117,82)"/>
<path d="M0 0 C7.82692308 7.40384615 7.82692308 7.40384615 8.1875 12.8125 C8.125625 13.534375 8.06375 14.25625 8 15 C4.86501708 16.85776765 2.62528568 17.20140476 -1 17 C-1 16.34 -1 15.68 -1 15 C2.465 14.505 2.465 14.505 6 14 C4.00503547 8.75009334 1.76315833 5.16998625 -2 1 C-1.34 0.67 -0.68 0.34 0 0 Z " fill="#27024C" transform="translate(145,73)"/>
<path d="M0 0 C0.33 0.33 0.66 0.66 1 1 C3.32817964 1.36760731 5.6618385 1.70241581 8 2 C7.67 2.99 7.34 3.98 7 5 C6.13375 4.67 5.2675 4.34 4.375 4 C-2.94804539 1.88412008 -11.63115212 2.26206418 -19 4 C-19 3.34 -19 2.68 -19 2 C-12.72207522 -0.28288174 -6.6473321 -0.45084429 0 0 Z " fill="#2B0355" transform="translate(136,69)"/>
<path d="M0 0 C0.8971875 0.7425 0.8971875 0.7425 1.8125 1.5 C-0.1875 2.5 -0.1875 2.5 -3 1.5625 C-4.051875 1.211875 -5.10375 0.86125 -6.1875 0.5 C-8.85584966 0.16501699 -8.85584966 0.16501699 -11.1875 0.5 C-11.8475 1.16 -12.5075 1.82 -13.1875 2.5 C-15.84287372 3.06520003 -18.47894713 3.23788198 -21.1875 3.5 C-15.60058264 -2.472222 -7.46611114 -3.51346407 0 0 Z " fill="#26024D" transform="translate(80.1875,79.5)"/>
<path d="M0 0 C-1.1446875 0.804375 -1.1446875 0.804375 -2.3125 1.625 C-6.27048456 5.1227538 -7.77854175 8.42105342 -8.51171875 13.6484375 C-8.56972656 14.87820312 -8.62773438 16.10796875 -8.6875 17.375 C-8.75324219 18.62023437 -8.81898437 19.86546875 -8.88671875 21.1484375 C-8.92410156 22.08945313 -8.96148437 23.03046875 -9 24 C-9.33 24 -9.66 24 -10 24 C-10.05434116 21.4580411 -10.0938339 18.91726318 -10.125 16.375 C-10.14175781 15.66214844 -10.15851563 14.94929688 -10.17578125 14.21484375 C-10.21663249 9.76205808 -9.82800202 6.14887831 -8 2 C-3.86363636 -1.28787879 -3.86363636 -1.28787879 0 0 Z " fill="#200042" transform="translate(116,74)"/>
<path d="M0 0 C0.33 1.65 0.66 3.3 1 5 C-4.94 4.01 -4.94 4.01 -11 3 C-10.67 2.01 -10.34 1.02 -10 0 C-6.7169902 -1.6415049 -3.57454967 -0.51888624 0 0 Z " fill="#9234E7" transform="translate(141,98)"/>
<path d="M0 0 C0.89847656 -0.020625 1.79695313 -0.04125 2.72265625 -0.0625 C7.61292055 -0.09139373 11.2349953 -0.10289108 15.125 3.25 C15.125 3.91 15.125 4.57 15.125 5.25 C9.375 3.375 9.375 3.375 7.125 2.25 C4.67571345 2.15144883 2.26118624 2.11099417 -0.1875 2.125 C-1.50363281 2.12242188 -2.81976563 2.11984375 -4.17578125 2.1171875 C-7.23420294 2.22699356 -9.9141392 2.52839756 -12.875 3.25 C-12.875 2.59 -12.875 1.93 -12.875 1.25 C-8.59317238 -0.17727587 -4.48554564 0.02552231 0 0 Z " fill="#2E0357" transform="translate(71.875,69.75)"/>
<path d="M0 0 C-0.375 2.4375 -0.375 2.4375 -1 5 C-1.99 5.495 -1.99 5.495 -3 6 C-3.185625 7.2065625 -3.185625 7.2065625 -3.375 8.4375 C-4 11 -4 11 -5.875 12.3125 C-8 13 -8 13 -11 13 C-10.34 12.01 -9.68 11.02 -9 10 C-8.01 10 -7.02 10 -6 10 C-5.95101562 9.36191406 -5.90203125 8.72382812 -5.8515625 8.06640625 C-5.77679688 7.24011719 -5.70203125 6.41382812 -5.625 5.5625 C-5.55539063 4.73878906 -5.48578125 3.91507812 -5.4140625 3.06640625 C-5.27742188 2.38449219 -5.14078125 1.70257813 -5 1 C-3 0 -3 0 0 0 Z " fill="#9333EA" transform="translate(90,108)"/>
<path d="M0 0 C1.65 1.65 3.3 3.3 5 5 C4.67 5.66 4.34 6.32 4 7 C3.34 7 2.68 7 2 7 C1.67 8.65 1.34 10.3 1 12 C0.34 12 -0.32 12 -1 12 C-1.66 8.37 -2.32 4.74 -3 1 C-2.01 1.33 -1.02 1.66 0 2 C0 1.34 0 0.68 0 0 Z " fill="#0A011A" transform="translate(94,74)"/>
<path d="M0 0 C1.67542976 0.28604898 3.34385343 0.61781233 5 1 C5 2.65 5 4.3 5 6 C3.34385343 6.38218767 1.67542976 6.71395102 0 7 C-1 6 -1 6 -1.125 3.5 C-1 1 -1 1 0 0 Z " fill="#833ACC" transform="translate(98,71)"/>
<path d="M0 0 C5.35810969 -0.16898112 10.19349172 0.43488578 15.4375 1.5 C16.16904297 1.64308594 16.90058594 1.78617187 17.65429688 1.93359375 C19.43735486 2.28321296 21.21885203 2.64077688 23 3 C23 3.33 23 3.66 23 4 C19.91560757 3.91890252 16.83316088 3.80608311 13.75 3.6875 C12.87730469 3.66494141 12.00460938 3.64238281 11.10546875 3.61914062 C3.13479873 3.28449417 3.13479873 3.28449417 0 0 Z " fill="#34085B" transform="translate(107,98)"/>
<path d="M0 0 C0.99 0.33 1.98 0.66 3 1 C2.25 8.625 2.25 8.625 0 12 C-0.99 10.02 -1.98 8.04 -3 6 C-2.34 5.34 -1.68 4.68 -1 4 C-0.3574765 1.93125966 -0.3574765 1.93125966 0 0 Z " fill="#0E011E" transform="translate(105,73)"/>
<path d="M0 0 C0.99 0 1.98 0 3 0 C3 0.66 3 1.32 3 2 C3.99 2 4.98 2 6 2 C5.67 5.3 5.34 8.6 5 12 C4.67 12 4.34 12 4 12 C4 9.36 4 6.72 4 4 C2.68 4.99 1.36 5.98 0 7 C0 4.69 0 2.38 0 0 Z " fill="#8D37DF" transform="translate(109,80)"/>
<path d="M0 0 C0.52078125 0.15339844 1.0415625 0.30679688 1.578125 0.46484375 C4.63278515 1.13982511 7.63015971 1.34411118 10.75 1.5625 C11.92046875 1.64628906 13.0909375 1.73007813 14.296875 1.81640625 C15.18890625 1.87699219 16.0809375 1.93757813 17 2 C12.95398061 4.69734626 9.74576236 4.43218852 5 4 C1.9375 3 1.9375 3 0 2 C0 1.34 0 0.68 0 0 Z " fill="#2B0652" transform="translate(57,119)"/>
<path d="M0 0 C0.598125 0.165 1.19625 0.33 1.8125 0.5 C4.11344336 1.1114124 4.11344336 1.1114124 7 1 C7.33 2.32 7.66 3.64 8 5 C6.02 5.33 4.04 5.66 2 6 C0 2.25 0 2.25 0 0 Z " fill="#12022B" transform="translate(120,114)"/>
<path d="M0 0 C-1.15520554 3.46561662 -2.71066892 4.39446973 -5.5 6.59375 C-7.75013033 8.70324718 -8.82326265 11.18890523 -10 14 C-10.93423645 10.98968256 -11.04449911 10.13349732 -10 7 C-3.51219512 0 -3.51219512 0 0 0 Z " fill="#240048" transform="translate(59,71)"/>
<path d="M0 0 C3.9054743 0.57858879 6.19600103 2.26979048 9 5 C10.3125 8.25 10.3125 8.25 11 11 C10.01 10.67 9.02 10.34 8 10 C7.54625 9.05125 7.0925 8.1025 6.625 7.125 C4.8188178 3.6515727 3.40838958 2.75025411 0 1 C0 0.67 0 0.34 0 0 Z " fill="#8238C6" transform="translate(81,73)"/>
<path d="M0 0 C0.33 0.99 0.66 1.98 1 3 C-1.97 2.505 -1.97 2.505 -5 2 C-5.33 2.99 -5.66 3.98 -6 5 C-6.33 3.35 -6.66 1.7 -7 0 C-4.3333581 -1.33332095 -2.83319697 -0.67102033 0 0 Z " fill="#7F37C8" transform="translate(117,113)"/>
<path d="M0 0 C2.475 0.495 2.475 0.495 5 1 C6.75747614 5.50353262 7.19294408 9.17639811 7 14 C6.67 14 6.34 14 6 14 C5.81824219 13.32453125 5.63648437 12.6490625 5.44921875 11.953125 C5.19785156 11.06109375 4.94648437 10.1690625 4.6875 9.25 C4.44386719 8.36828125 4.20023437 7.4865625 3.94921875 6.578125 C2.97874669 3.94227495 1.78994356 2.14592674 0 0 Z " fill="#8438CE" transform="translate(80,79)"/>
<path d="M0 0 C2.64752004 2.57784846 4.94432065 4.91648098 7 8 C7 9.32 7 10.64 7 12 C6.34 12 5.68 12 5 12 C4.71125 11.030625 4.4225 10.06125 4.125 9.0625 C3.35785318 5.89335797 3.35785318 5.89335797 1 5 C0.375 2.4375 0.375 2.4375 0 0 Z " fill="#7F38C3" transform="translate(144,75)"/>
<path d="M0 0 C-0.763125 0.5775 -1.52625 1.155 -2.3125 1.75 C-4.66200917 3.71703093 -6.29323505 5.48476744 -8 8 C-8.3125 5.1875 -8.3125 5.1875 -8 2 C-4.88411016 -0.61061041 -3.93844351 -1.3128145 0 0 Z " fill="#2A034F" transform="translate(116,74)"/>
<path d="M0 0 C0.99 0 1.98 0 3 0 C3 0.66 3 1.32 3 2 C2.34 2 1.68 2 1 2 C0.67 3.65 0.34 5.3 0 7 C-1.32 7.33 -2.64 7.66 -4 8 C-4 7.34 -4 6.68 -4 6 C-3.34 6 -2.68 6 -2 6 C-1.34 4.02 -0.68 2.04 0 0 Z " fill="#090019" transform="translate(89,118)"/>
<path d="M0 0 C2.97 0.495 2.97 0.495 6 1 C5.67 2.32 5.34 3.64 5 5 C2.525 4.01 2.525 4.01 0 3 C0 2.01 0 1.02 0 0 Z " fill="#9234EA" transform="translate(112,115)"/>
<path d="M0 0 C0.33 0 0.66 0 1 0 C0.67 2.64 0.34 5.28 0 8 C-1.98 8.66 -3.96 9.32 -6 10 C-5.65066406 9.52949219 -5.30132812 9.05898437 -4.94140625 8.57421875 C-4.48636719 7.95160156 -4.03132813 7.32898438 -3.5625 6.6875 C-2.88380859 5.76517578 -2.88380859 5.76517578 -2.19140625 4.82421875 C-0.82663692 2.90322899 -0.82663692 2.90322899 0 0 Z " fill="#7F37C6" transform="translate(84,110)"/>
<path d="M0 0 C1.4835001 0.42257276 2.96176424 0.86356322 4.4375 1.3125 C5.67306641 1.67794922 5.67306641 1.67794922 6.93359375 2.05078125 C7.61550781 2.36402344 8.29742187 2.67726563 9 3 C9.33 3.99 9.66 4.98 10 6 C8.35 5.67 6.7 5.34 5 5 C5 4.34 5 3.68 5 3 C2.525 2.01 2.525 2.01 0 1 C0 0.67 0 0.34 0 0 Z " fill="#2F0558" transform="translate(134,102)"/>
<path d="M0 0 C2.475 0.99 2.475 0.99 5 2 C5.33 4.31 5.66 6.62 6 9 C3.75972706 6.11964908 1.83827868 3.15133488 0 0 Z " fill="#1C013C" transform="translate(87,75)"/>
<path d="M0 0 C1.2065625 0.0309375 1.2065625 0.0309375 2.4375 0.0625 C1.4375 3.0625 1.4375 3.0625 -0.625 4.25 C-1.264375 4.518125 -1.90375 4.78625 -2.5625 5.0625 C-3.125 3.125 -3.125 3.125 -3.5625 1.0625 C-2.5625 0.0625 -2.5625 0.0625 0 0 Z " fill="#8235D0" transform="translate(84.5625,118.9375)"/>
<path d="M0 0 C0.78375 0.04125 1.5675 0.0825 2.375 0.125 C-0.24014317 2.24538635 -2.82137616 4.25591744 -5.625 6.125 C-4.86443086 2.32215429 -4.27658992 0.20364714 0 0 Z " fill="#220244" transform="translate(54.625,96.875)"/>
<path d="M0 0 C2 3 2 3 2 7 C0.68 6.67 -0.64 6.34 -2 6 C-1.34 4.02 -0.68 2.04 0 0 Z " fill="#0B001C" transform="translate(82,85)"/>
<path d="M0 0 C4.8 3.44615385 4.8 3.44615385 5.8125 6.25 C5.874375 6.8275 5.93625 7.405 6 8 C4.125 7.375 4.125 7.375 2 6 C0.75 2.875 0.75 2.875 0 0 Z " fill="#2D0558" transform="translate(138,80)"/>
<path d="M0 0 C0 0.66 0 1.32 0 2 C-0.928125 2.4021875 -0.928125 2.4021875 -1.875 2.8125 C-4.2995233 3.95556848 -4.2995233 3.95556848 -6 7 C-6.66 7 -7.32 7 -8 7 C-6.47663111 3.31852519 -4.31953005 0 0 0 Z " fill="#7E39C6" transform="translate(118,73)"/>
</svg>
